<?xml version="1.0" encoding="UTF-8" standalone="no"?>
<!DOCTYPE svg PUBLIC "-//W3C//DTD SVG 1.1//EN"
 "http://www.w3.org/Graphics/SVG/1.1/DTD/svg11.dtd">
<!-- Generated by graphviz version 2.40.1 (20161225.0304)
 -->
<!-- Title: %3 Pages: 1 -->
<svg width="253pt" height="263pt"
 viewBox="0.00 0.00 253.00 263.00" xmlns="http://www.w3.org/2000/svg" xmlns:xlink="http://www.w3.org/1999/xlink">
<g id="graph0" class="graph" transform="scale(1 1) rotate(0) translate(4 259)">
<title>%3</title>
<polygon fill="#ffffff" stroke="transparent" points="-4,4 -4,-259 249,-259 249,4 -4,4"/>
<g id="clust1" class="cluster">
<title>cluster_0</title>
<polygon fill="none" stroke="#ffffff" points="8,-8 8,-247 60,-247 60,-8 8,-8"/>
<text text-anchor="middle" x="34" y="-230.4" font-family="Times,serif" font-size="14.00" fill="#000000">inputs</text>
</g>
<g id="clust2" class="cluster">
<title>cluster_1</title>
<polygon fill="none" stroke="#ffffff" points="80,-35 80,-220 165,-220 165,-35 80,-35"/>
<text text-anchor="middle" x="122.5" y="-203.4" font-family="Times,serif" font-size="14.00" fill="#000000">hidden layer</text>
</g>
<g id="clust3" class="cluster">
<title>cluster_2</title>
<polygon fill="none" stroke="#ffffff" points="185,-89 185,-166 237,-166 237,-89 185,-89"/>
<text text-anchor="middle" x="211" y="-149.4" font-family="Times,serif" font-size="14.00" fill="#000000">output</text>
</g>
<!-- x[0] -->
<g id="node1" class="node">
<title>x[0]</title>
<ellipse fill="none" stroke="#000000" cx="34" cy="-196" rx="18" ry="18"/>
<text text-anchor="middle" x="34" y="-191.8" font-family="Times,serif" font-size="14.00" fill="#000000">x[0]</text>
</g>
<!-- h0 -->
<g id="node5" class="node">
<title>h0</title>
<ellipse fill="none" stroke="#000000" cx="122" cy="-61" rx="18" ry="18"/>
<text text-anchor="middle" x="122" y="-56.8" font-family="Times,serif" font-size="14.00" fill="#000000">h[0]</text>
</g>
<!-- x[0]&#45;&gt;h0 -->
<g id="edge1" class="edge">
<title>x[0]&#45;&gt;h0</title>
<path fill="none" stroke="#000000" d="M43.9237,-180.7762C59.1082,-157.4817 88.244,-112.7848 106.311,-85.0684"/>
<polygon fill="#000000" stroke="#000000" points="109.4488,-86.6639 111.9776,-76.3753 103.5847,-82.8414 109.4488,-86.6639"/>
</g>
<!-- h1 -->
<g id="node6" class="node">
<title>h1</title>
<ellipse fill="none" stroke="#000000" cx="122" cy="-169" rx="18" ry="18"/>
<text text-anchor="middle" x="122" y="-164.8" font-family="Times,serif" font-size="14.00" fill="#000000">h[1]</text>
</g>
<!-- x[0]&#45;&gt;h1 -->
<g id="edge2" class="edge">
<title>x[0]&#45;&gt;h1</title>
<path fill="none" stroke="#000000" d="M51.386,-190.6657C63.8004,-186.8567 80.7424,-181.6586 94.9198,-177.3087"/>
<polygon fill="#000000" stroke="#000000" points="96.1167,-180.6026 104.6501,-174.3232 94.0634,-173.9105 96.1167,-180.6026"/>
</g>
<!-- h2 -->
<g id="node7" class="node">
<title>h2</title>
<ellipse fill="none" stroke="#000000" cx="122" cy="-115" rx="18" ry="18"/>
<text text-anchor="middle" x="122" y="-110.8" font-family="Times,serif" font-size="14.00" fill="#000000">h[2]</text>
</g>
<!-- x[0]&#45;&gt;h2 -->
<g id="edge3" class="edge">
<title>x[0]&#45;&gt;h2</title>
<path fill="none" stroke="#000000" d="M47.3653,-183.6978C61.5794,-170.6144 84.2611,-149.7369 100.8935,-134.4276"/>
<polygon fill="#000000" stroke="#000000" points="103.5216,-136.7655 108.5089,-127.4179 98.7809,-131.6152 103.5216,-136.7655"/>
</g>
<!-- x[1] -->
<g id="node2" class="node">
<title>x[1]</title>
<ellipse fill="none" stroke="#000000" cx="34" cy="-142" rx="18" ry="18"/>
<text text-anchor="middle" x="34" y="-137.8" font-family="Times,serif" font-size="14.00" fill="#000000">x[1]</text>
</g>
<!-- x[1]&#45;&gt;h0 -->
<g id="edge4" class="edge">
<title>x[1]&#45;&gt;h0</title>
<path fill="none" stroke="#000000" d="M47.3653,-129.6978C61.5794,-116.6144 84.2611,-95.7369 100.8935,-80.4276"/>
<polygon fill="#000000" stroke="#000000" points="103.5216,-82.7655 108.5089,-73.4179 98.7809,-77.6152 103.5216,-82.7655"/>
</g>
<!-- x[1]&#45;&gt;h1 -->
<g id="edge5" class="edge">
<title>x[1]&#45;&gt;h1</title>
<path fill="none" stroke="#000000" d="M51.386,-147.3343C63.8004,-151.1433 80.7424,-156.3414 94.9198,-160.6913"/>
<polygon fill="#000000" stroke="#000000" points="94.0634,-164.0895 104.6501,-163.6768 96.1167,-157.3974 94.0634,-164.0895"/>
</g>
<!-- x[1]&#45;&gt;h2 -->
<g id="edge6" class="edge">
<title>x[1]&#45;&gt;h2</title>
<path fill="none" stroke="#000000" d="M51.386,-136.6657C63.8004,-132.8567 80.7424,-127.6586 94.9198,-123.3087"/>
<polygon fill="#000000" stroke="#000000" points="96.1167,-126.6026 104.6501,-120.3232 94.0634,-119.9105 96.1167,-126.6026"/>
</g>
<!-- x[2] -->
<g id="node3" class="node">
<title>x[2]</title>
<ellipse fill="none" stroke="#000000" cx="34" cy="-88" rx="18" ry="18"/>
<text text-anchor="middle" x="34" y="-83.8" font-family="Times,serif" font-size="14.00" fill="#000000">x[2]</text>
</g>
<!-- x[2]&#45;&gt;h0 -->
<g id="edge7" class="edge">
<title>x[2]&#45;&gt;h0</title>
<path fill="none" stroke="#000000" d="M51.386,-82.6657C63.8004,-78.8567 80.7424,-73.6586 94.9198,-69.3087"/>
<polygon fill="#000000" stroke="#000000" points="96.1167,-72.6026 104.6501,-66.3232 94.0634,-65.9105 96.1167,-72.6026"/>
</g>
<!-- x[2]&#45;&gt;h1 -->
<g id="edge8" class="edge">
<title>x[2]&#45;&gt;h1</title>
<path fill="none" stroke="#000000" d="M47.3653,-100.3022C61.5794,-113.3856 84.2611,-134.2631 100.8935,-149.5724"/>
<polygon fill="#000000" stroke="#000000" points="98.7809,-152.3848 108.5089,-156.5821 103.5216,-147.2345 98.7809,-152.3848"/>
</g>
<!-- x[2]&#45;&gt;h2 -->
<g id="edge9" class="edge">
<title>x[2]&#45;&gt;h2</title>
<path fill="none" stroke="#000000" d="M51.386,-93.3343C63.8004,-97.1433 80.7424,-102.3414 94.9198,-106.6913"/>
<polygon fill="#000000" stroke="#000000" points="94.0634,-110.0895 104.6501,-109.6768 96.1167,-103.3974 94.0634,-110.0895"/>
</g>
<!-- x[3] -->
<g id="node4" class="node">
<title>x[3]</title>
<ellipse fill="none" stroke="#000000" cx="34" cy="-34" rx="18" ry="18"/>
<text text-anchor="middle" x="34" y="-29.8" font-family="Times,serif" font-size="14.00" fill="#000000">x[3]</text>
</g>
<!-- x[3]&#45;&gt;h0 -->
<g id="edge10" class="edge">
<title>x[3]&#45;&gt;h0</title>
<path fill="none" stroke="#000000" d="M51.386,-39.3343C63.8004,-43.1433 80.7424,-48.3414 94.9198,-52.6913"/>
<polygon fill="#000000" stroke="#000000" points="94.0634,-56.0895 104.6501,-55.6768 96.1167,-49.3974 94.0634,-56.0895"/>
</g>
<!-- x[3]&#45;&gt;h1 -->
<g id="edge11" class="edge">
<title>x[3]&#45;&gt;h1</title>
<path fill="none" stroke="#000000" d="M43.9237,-49.2238C59.1082,-72.5183 88.244,-117.2152 106.311,-144.9316"/>
<polygon fill="#000000" stroke="#000000" points="103.5847,-147.1586 111.9776,-153.6247 109.4488,-143.3361 103.5847,-147.1586"/>
</g>
<!-- x[3]&#45;&gt;h2 -->
<g id="edge12" class="edge">
<title>x[3]&#45;&gt;h2</title>
<path fill="none" stroke="#000000" d="M47.3653,-46.3022C61.5794,-59.3856 84.2611,-80.2631 100.8935,-95.5724"/>
<polygon fill="#000000" stroke="#000000" points="98.7809,-98.3848 108.5089,-102.5821 103.5216,-93.2345 98.7809,-98.3848"/>
</g>
<!-- y -->
<g id="node8" class="node">
<title>y</title>
<ellipse fill="none" stroke="#000000" cx="211" cy="-115" rx="18" ry="18"/>
<text text-anchor="middle" x="211" y="-110.8" font-family="Times,serif" font-size="14.00" fill="#000000">y</text>
</g>
<!-- h0&#45;&gt;y -->
<g id="edge13" class="edge">
<title>h0&#45;&gt;y</title>
<path fill="none" stroke="#000000" d="M137.5026,-70.4061C151.0747,-78.6408 171.0207,-90.7429 186.7106,-100.2626"/>
<polygon fill="#000000" stroke="#000000" points="185.0114,-103.3255 195.3764,-105.5205 188.6426,-97.3409 185.0114,-103.3255"/>
</g>
<!-- h1&#45;&gt;y -->
<g id="edge14" class="edge">
<title>h1&#45;&gt;y</title>
<path fill="none" stroke="#000000" d="M137.5026,-159.5939C151.0747,-151.3592 171.0207,-139.2571 186.7106,-129.7374"/>
<polygon fill="#000000" stroke="#000000" points="188.6426,-132.6591 195.3764,-124.4795 185.0114,-126.6745 188.6426,-132.6591"/>
</g>
<!-- h2&#45;&gt;y -->
<g id="edge15" class="edge">
<title>h2&#45;&gt;y</title>
<path fill="none" stroke="#000000" d="M140.0105,-115C152.2342,-115 168.6505,-115 182.6176,-115"/>
<polygon fill="#000000" stroke="#000000" points="182.7109,-118.5001 192.7108,-115 182.7108,-111.5001 182.7109,-118.5001"/>
</g>
</g>
</svg>
